<svg version="1.1" xmlns="http://www.w3.org/2000/svg" viewBox="720 937.75 633.33 222.78">

<path d="M0 0 C36.65490537 -0.0679172 73.30979233 -0.1215817 109.96474778 -0.15319599 C114.29900839 -0.1569478 118.63326888 -0.16083079 122.9675293 -0.16479492 C123.8303483 -0.16558185 124.69316731 -0.16636878 125.58213235 -0.16717956 C139.52543166 -0.18020885 153.4686936 -0.20384894 167.41197079 -0.23145839 C181.73495772 -0.25958171 196.05792518 -0.27619086 210.38093859 -0.28226548 C219.2083711 -0.28636761 228.03569795 -0.29929103 236.86309791 -0.3237494 C242.92864885 -0.33969225 248.99414571 -0.34438117 255.05971604 -0.34050413 C258.55142883 -0.33859578 262.04295791 -0.34137617 265.53463745 -0.35761642 C302.5603297 -0.50438982 302.5603297 -0.50438982 315.4375 6.625 C316.09089355 6.97127441 316.74428711 7.31754883 317.41748047 7.67431641 C328.89007167 14.00705074 336.92346868 22.76342702 340.8125 35.375 C341.22557424 36.91213689 341.62290591 38.45364293 342 40 C342.17128418 40.61705811 342.34256836 41.23411621 342.51904297 41.86987305 C345.63370184 55.66449167 342.83759773 70.62956393 336 82.75 C331.81193527 88.99085795 326.19128478 92.88264313 320 97 C322.89978704 99.022772 322.89978704 99.022772 325.8203125 100.41015625 C337.60414497 106.30207249 346.41998016 113.75625208 350.85058594 126.43383789 C352.88536059 133.40955343 353.45844628 139.81658108 353.375 147.0625 C353.38660156 148.07376953 353.39820313 149.08503906 353.41015625 150.12695312 C353.35327178 164.85055057 347.52239522 177.18039062 337.38671875 187.78515625 C331.24134871 193.48797918 324.30718194 196.47734017 316.5 199.25 C315.83170166 199.4965332 315.16340332 199.74306641 314.47485352 199.99707031 C298.02726003 205.44631311 279.5856544 204.27164266 262.5234375 204.1953125 C260.29793397 204.19236374 258.07242903 204.19032844 255.84692383 204.18920898 C247.68959442 204.1788182 239.53229492 204.15089617 231.375 204.125 C213.10125 204.08375 194.8275 204.0425 176 204 C176 157.8 176 111.6 176 64 C188.87 64 201.74 64 215 64 C215 70.27 215 76.54 215 83 C223.04163311 82.91413136 231.08305227 82.82019506 239.12441826 82.71247292 C242.85927571 82.66275452 246.59410818 82.61642473 250.32910156 82.578125 C253.94079317 82.54096018 257.5522623 82.49452086 261.16376114 82.44193649 C262.53425272 82.42355669 263.90479169 82.40838978 265.27535629 82.39665604 C283.75933766 82.28712581 283.75933766 82.28712581 299.4375 73.5625 C303.8167114 66.3805933 303.8073378 59.16886956 303 51 C301.65026144 46.47118179 299.55421688 44.01151492 295.6171875 41.44921875 C288.93018134 37.90610354 283.31246205 36.87970411 275.75505066 36.84178162 C275.03615687 36.83684364 274.31726308 36.83190566 273.57658464 36.82681805 C271.17369866 36.81149039 268.7708393 36.8030953 266.36791992 36.79467773 C264.64306404 36.78509549 262.91821049 36.7750852 261.19335938 36.76467896 C256.51406755 36.73766139 251.83476568 36.71663478 247.15543914 36.69667697 C242.26403331 36.674798 237.37265837 36.64741866 232.48127747 36.62062073 C223.22018543 36.57071969 213.95907624 36.52577125 204.69795066 36.48259836 C192.18237209 36.42396819 179.66683414 36.35769522 167.15129185 36.29184818 C147.43422195 36.188314 127.71711716 36.0949979 108 36 C108 91.44 108 146.88 108 204 C95.13 204 82.26 204 69 204 C69 148.56 69 93.12 69 36 C46.23 36 23.46 36 0 36 C0 24.12 0 12.24 0 0 Z " fill="#FFFFFF" transform="translate(720,952)"/>TB>

<path d="M0 0 C20.46 0 40.92 0 62 0 C62 68.97 62 137.94 62 209 C49.13 209 36.26 209 23 209 C23 151.91 23 94.82 23 36 C15.41 36 7.82 36 0 36 C0 24.12 0 12.24 0 0 Z " fill="#FFFFFF" transform="translate(1083,947)"/>1>

<path d="M0 0 C0.7753157 -0.0033284 1.55063141 -0.0066568 2.34944153 -0.01008606 C3.97880467 -0.01510994 5.60817795 -0.0174958 7.23754883 -0.01733398 C9.68393623 -0.0195107 12.12986445 -0.03768845 14.57617188 -0.05664062 C38.80827142 -0.14314659 62.41488999 4.16161653 80.6796875 21.20703125 C94.07866251 34.64608296 98.4691091 54.9116871 100.51953125 73.16796875 C100.66092529 74.41912476 100.66092529 74.41912476 100.80517578 75.69555664 C101.83005078 86.5924163 101.74143701 97.53905757 101.75976562 108.47436523 C101.76940275 111.93433313 101.80047293 115.39368812 101.83203125 118.85351562 C101.96741257 147.26333066 100.59825682 180.54221743 79.51953125 202.16796875 C55.66686866 222.79435934 20.5195229 224.07146816 -9.41015625 221.96142578 C-29.31602772 219.98503576 -48.38303815 213.59866966 -62.38671875 198.7578125 C-81.31809691 175.34082795 -80.99792124 144.37812346 -80.87158203 115.7956543 C-80.85447583 111.88719218 -80.86465515 107.97934221 -80.88190556 104.07090092 C-80.98900558 75.49154799 -80.68390422 42.185152 -59.62109375 20.03125 C-43.16850836 5.7102952 -21.45528112 0.03320902 0 0 Z " fill="#FFFFFF" transform="translate(1251.48046875,937.83203125)"/>0>

<path d="M0 0 C10.01790919 8.17788505 14.13568206 19.31194508 15.64752197 31.99319458 C16.08464893 37.19708388 16.04019072 42.41764929 16.05859375 47.63671875 C16.06429382 48.90735672 16.0699939 50.17799469 16.0758667 51.48713684 C16.08529164 54.1759497 16.09219998 56.86465176 16.09570312 59.5534668 C16.1000544 62.26552024 16.11382329 64.97724956 16.13671875 67.68920898 C16.33946984 93.61758867 16.33946984 93.61758867 14.54296875 106.3984375 C14.4283429 107.21503342 14.31371704 108.03162933 14.19561768 108.87297058 C12.64738062 118.40291225 8.78541173 128.53243063 0.71484375 134.37109375 C-16.87149738 144.75294639 -39.65130417 145.04282888 -59.140625 140.3828125 C-68.07305292 137.66475251 -75.18718647 133.04245993 -79.98046875 124.83203125 C-86.29570226 112.01083569 -86.31028021 99.12198858 -86.34765625 85.109375 C-86.35048363 84.38580559 -86.353311 83.66223618 -86.35622406 82.91674042 C-86.37111917 79.08804473 -86.38040988 75.25938579 -86.38476562 71.43066406 C-86.39023951 67.51987787 -86.41427261 63.60944165 -86.44273758 59.6987648 C-86.4615468 56.65117466 -86.46657913 53.60366587 -86.4681015 50.55602264 C-86.47108695 49.11620927 -86.47897224 47.67639584 -86.49228668 46.23664093 C-86.61599905 31.83309247 -85.46192862 14.07963394 -74.93359375 3.05859375 C-56.99481818 -12.88263258 -19.38120841 -13.83867704 0 0 Z " fill="#067429" transform="translate(1297.14453125,981.53125)"/>inO>

<path d="M0 0 C17.94646391 -0.16043524 17.94646391 -0.16043524 25.66992188 -0.1953125 C30.91447389 -0.21910894 36.15874329 -0.24708188 41.40307617 -0.30175781 C45.63712446 -0.34561827 49.87086917 -0.3692207 54.10512733 -0.37950897 C55.71047041 -0.38682899 57.31579923 -0.4011205 58.92101097 -0.42292023 C70.91535434 -0.57914701 82.3896172 -0.10473942 92.125 7.8125 C97.34306725 13.03056725 99.12392653 17.52877628 99.375 24.875 C99.12495159 32.57841458 98.0993297 38.41294038 92.375 43.875 C88.25699528 47.15120265 84.0897229 48.8120934 79 50 C78.2819368 50.17313217 77.5638736 50.34626434 76.8240509 50.52464294 C73.38883561 51.10287396 70.12402023 51.1194617 66.6394043 51.11352539 C65.91690994 51.11367142 65.19441559 51.11381744 64.45002747 51.1139679 C62.07472678 51.11327422 59.69950565 51.10550745 57.32421875 51.09765625 C55.67226708 51.09579013 54.02031485 51.09436714 52.36836243 51.09336853 C48.02992208 51.08955861 43.69151545 51.07974139 39.35308838 51.06866455 C34.14260301 51.05661457 28.93210635 51.05204093 23.72161102 51.04621124 C15.81438393 51.03652879 7.90723075 51.01736157 0 51 C0 34.17 0 17.34 0 0 Z " fill="#067429" transform="translate(935,1069)"/>inB>

</svg>